<svg width="560" height="814" viewBox="0 0 560 814" fill="none" xmlns="http://www.w3.org/2000/svg">
<path d="M389.661 796.205C344.949 812.057 301.968 816.915 260.718 810.779C219.469 804.643 182.772 787.996 150.626 760.838C118.481 733.68 93.8856 696.061 76.8397 647.98C60.9614 603.193 54.7114 563.147 58.09 527.844C62.0569 492.332 72.1268 460.959 88.2999 433.724C97.5121 417.602 107.624 402.772 118.636 389.232C128.751 376.797 123.173 356.429 108.285 350.488C102.443 348.157 96.6194 345.577 90.816 342.748C73.7911 333.956 58.1855 321.694 43.9991 305.964C30.4011 290.025 19.2822 269.87 10.6425 245.501C-0.799257 213.227 -2.6641 182.748 5.04799 154.064C13.1149 124.513 29.0499 98.4748 52.8528 75.9489C77.0106 52.5558 107.622 34.2892 144.686 21.1489C169.984 12.1801 195.04 6.26302 219.852 3.39769C244.431 -0.126319 268.707 0.164326 292.68 4.26964C312.131 7.09375 331.062 12.84 349.473 21.5084C356.889 25.0002 360.912 33.008 359.905 41.143L350.741 115.198C349.022 129.096 333.89 136.959 320.863 131.82C301.434 124.156 282.307 119.566 263.48 118.051C235.977 115.197 211.048 117.733 188.692 125.659C171.63 131.707 158.855 139.573 150.367 149.255C142.233 158.07 137.625 167.488 136.543 177.511C135.46 187.533 136.436 196.826 139.472 205.388C144.376 219.219 152.403 229.719 163.554 236.887C175.293 243.847 189.74 249.105 206.895 252.661C224.051 256.218 244.32 260.153 267.705 264.467C319.292 273.611 362.699 286.766 397.926 303.935C433.152 321.103 461.842 343.184 483.995 370.177C506.502 396.303 524.411 428.137 537.721 465.68C557.335 521.006 563.973 570.552 557.635 614.319C551.063 657.427 533.396 694.459 504.635 725.416C475.64 755.714 437.316 779.31 389.661 796.205ZM351.16 676.398C372.34 668.889 388.299 656.929 399.038 640.518C410.365 623.898 416.35 604.353 416.993 581.882C417.636 559.411 413.521 535.662 404.647 510.633C396.008 486.264 384.478 465.884 370.058 449.495C355.638 433.106 338.506 420.274 318.66 410.998C301.791 402.219 283.551 395.87 263.939 391.951C258.108 390.786 252.079 392.535 247.772 396.636C236.573 407.296 226.798 418.736 218.448 430.956C209.008 445.424 201.799 460.584 196.822 476.435C192.434 492.078 190.511 509.071 191.054 527.415C192.185 545.549 196.37 564.825 203.609 585.243C212.949 611.589 225.123 632.852 240.131 649.032C255.139 665.213 272.16 675.861 291.192 680.976C310.58 685.224 330.569 683.698 351.16 676.398Z" fill="#D9D9D9" fill-opacity="0.08"/>
</svg>
